<mxfile host="app.diagrams.net" modified="2022-06-20T02:23:24.113Z" agent="5.0 (Windows NT 10.0; Win64; x64) AppleWebKit/537.36 (KHTML, like Gecko) Chrome/102.0.0.0 Safari/537.36" etag="gJf1bIKxUO4EjmwnfFjn" version="20.0.1" type="github">
  <diagram id="sBDNG-lVWSLA6XNMSq2T" name="Page-1">
    <mxGraphModel dx="387" dy="784" grid="1" gridSize="10" guides="1" tooltips="1" connect="1" arrows="1" fold="1" page="1" pageScale="1" pageWidth="827" pageHeight="1169" math="0" shadow="0">
      <root>
        <mxCell id="0" />
        <mxCell id="1" parent="0" />
        <mxCell id="TEyrhqTuTmhY0QmGWr-8-1" value="Start" style="rounded=1;whiteSpace=wrap;html=1;" vertex="1" parent="1">
          <mxGeometry x="100" y="80" width="120" height="60" as="geometry" />
        </mxCell>
        <mxCell id="TEyrhqTuTmhY0QmGWr-8-2" value="libraries 설치 &amp;amp; 제공된 dataset 불러오기" style="rounded=0;whiteSpace=wrap;html=1;" vertex="1" parent="1">
          <mxGeometry x="100" y="190" width="120" height="60" as="geometry" />
        </mxCell>
        <mxCell id="TEyrhqTuTmhY0QmGWr-8-3" value="&#39;feedback&#39; column을 추가하여 각 제품의 인기도(rating) 계산" style="rounded=0;whiteSpace=wrap;html=1;" vertex="1" parent="1">
          <mxGeometry x="100" y="290" width="120" height="60" as="geometry" />
        </mxCell>
        <mxCell id="TEyrhqTuTmhY0QmGWr-8-4" value="FunkSVD library를 이용한 학습" style="rounded=0;whiteSpace=wrap;html=1;" vertex="1" parent="1">
          <mxGeometry x="100" y="380" width="120" height="60" as="geometry" />
        </mxCell>
        <mxCell id="TEyrhqTuTmhY0QmGWr-8-5" value="학습 결과를 가지고 submission 파일 생성" style="rounded=0;whiteSpace=wrap;html=1;" vertex="1" parent="1">
          <mxGeometry x="100" y="470" width="120" height="60" as="geometry" />
        </mxCell>
        <mxCell id="TEyrhqTuTmhY0QmGWr-8-6" value="end" style="rounded=1;whiteSpace=wrap;html=1;" vertex="1" parent="1">
          <mxGeometry x="100" y="570" width="120" height="60" as="geometry" />
        </mxCell>
      </root>
    </mxGraphModel>
  </diagram>
</mxfile>
